<?xml version="1.0" standalone="no"?>
<!DOCTYPE svg PUBLIC "-//W3C//DTD SVG 20010904//EN"
 "http://www.w3.org/TR/2001/REC-SVG-20010904/DTD/svg10.dtd">
<svg version="1.0" xmlns="http://www.w3.org/2000/svg"
 width="192.000000pt" height="192.000000pt" viewBox="0 0 192.000000 192.000000"
 preserveAspectRatio="xMidYMid meet">

<g transform="translate(0.000000,192.000000) scale(0.100000,-0.100000)"
fill="#000000" stroke="none">
<path d="M948 1913 l332 -3 0 -50 c0 -34 13 -84 41 -157 23 -60 81 -216 131
-348 49 -132 120 -321 158 -420 38 -99 122 -322 187 -496 l118 -317 3 80 c2
62 -2 93 -18 136 -12 32 -35 93 -51 137 -17 44 -34 91 -39 105 -5 14 -24 66
-43 115 -19 50 -98 261 -176 470 -156 415 -179 476 -243 640 l-43 110 -345 0
-345 0 333 -2z"/>
<path d="M572 1815 c-17 -37 -14 -45 4 -12 9 16 14 31 11 33 -2 2 -9 -7 -15
-21z"/>
<path d="M526 1693 c-14 -38 -26 -73 -25 -78 0 -6 13 23 29 64 16 41 28 76 26
78 -2 2 -16 -27 -30 -64z"/>
<path d="M482 1575 c-7 -14 -12 -31 -12 -38 1 -7 7 3 16 22 17 39 13 54 -4 16z"/>
<path d="M452 1495 c-17 -37 -14 -45 4 -12 9 16 14 31 11 33 -2 2 -9 -7 -15
-21z"/>
<path d="M422 1415 c-17 -37 -14 -45 4 -12 9 16 14 31 11 33 -2 2 -9 -7 -15
-21z"/>
<path d="M381 1309 c-6 -18 -9 -34 -7 -36 2 -2 9 10 15 28 6 18 9 34 7 36 -2
2 -9 -10 -15 -28z"/>
<path d="M883 1278 c-20 -23 -143 -412 -143 -454 0 -26 31 -56 56 -54 11 1 81
4 157 6 182 7 176 -6 103 230 -31 98 -58 199 -62 224 -4 25 -11 51 -17 58 -16
20 -71 14 -94 -10z m137 -273 c33 -108 60 -201 60 -206 0 -9 -243 -13 -252 -4
-3 3 20 90 51 193 65 213 70 227 76 220 3 -3 32 -94 65 -203z"/>
<path d="M356 1245 c-9 -26 -7 -32 5 -12 6 10 9 21 6 23 -2 3 -7 -2 -11 -11z"/>
<path d="M326 1165 c-9 -26 -7 -32 5 -12 6 10 9 21 6 23 -2 3 -7 -2 -11 -11z"/>
<path d="M300 1096 c-15 -39 -12 -46 6 -13 9 16 13 31 10 34 -3 3 -10 -6 -16
-21z"/>
<path d="M273 1025 c-3 -9 -3 -18 -1 -21 3 -3 8 4 11 16 6 23 -1 27 -10 5z"/>
<path d="M252 961 c-6 -17 -9 -31 -6 -31 7 0 25 52 20 57 -2 2 -8 -10 -14 -26z"/>
<path d="M211 859 c-6 -18 -9 -34 -7 -36 2 -2 9 10 15 28 6 18 9 34 7 36 -2 2
-9 -10 -15 -28z"/>
<path d="M181 779 c-6 -18 -9 -34 -7 -36 2 -2 9 10 15 28 6 18 9 34 7 36 -2 2
-9 -10 -15 -28z"/>
<path d="M133 649 c-7 -18 -11 -35 -8 -37 6 -6 27 48 23 60 -2 5 -9 -6 -15
-23z"/>
<path d="M91 539 c-6 -18 -9 -34 -7 -36 2 -2 9 10 15 28 6 18 9 34 7 36 -2 2
-9 -10 -15 -28z"/>
<path d="M61 459 c-6 -18 -9 -34 -7 -36 2 -2 9 10 15 28 6 18 9 34 7 36 -2 2
-9 -10 -15 -28z"/>
<path d="M22 353 c-12 -31 -20 -59 -18 -61 2 -2 14 22 25 54 12 31 20 58 18
61 -2 2 -14 -22 -25 -54z"/>
<path d="M611 373 c-14 -12 -33 -58 -57 -138 -20 -66 -37 -126 -40 -132 -2
-10 -57 -13 -227 -13 -261 0 -287 -5 -287 -56 l0 -34 285 0 c332 0 288 -22
343 168 l37 127 284 0 284 0 40 -130 c21 -72 46 -138 55 -147 14 -16 41 -18
304 -18 l288 0 0 35 c0 29 -5 37 -26 45 -14 6 -129 10 -256 10 -215 0 -232 -1
-258 -20 -27 -20 -29 -20 -38 -3 -16 32 -63 192 -71 245 -5 31 -16 57 -27 65
-14 10 -84 13 -315 13 -268 0 -299 -2 -318 -17z"/>
</g>
</svg>
